<svg id="Layer_2" data-name="Layer 2" xmlns="http://www.w3.org/2000/svg" viewBox="0 0 744.5 134.55"><defs><style>.cls-1{fill:#ffc63b;}.cls-2{fill:#fff;}.cls-3{fill:#f4bc3d;}.cls-4{fill:#e2e1e0;}</style></defs><title>CasinoFinder</title><path class="cls-1" d="M362.61,431.68a108.66,108.66,0,0,1-21.31,2.24q-4.07,0-7.66-.36a51.34,51.34,0,0,1-8-1.52,26.45,26.45,0,0,1-7.51-3.15,16.34,16.34,0,0,1-7.36-14.05V385.91q0-19.89,30.55-19.89a135.6,135.6,0,0,1,20.91,2.23v11.88a92.47,92.47,0,0,0-20.71-2.85c-2.3,0-4.18.07-5.63.21a19.66,19.66,0,0,0-4.57,1,6.65,6.65,0,0,0-3.55,2.59,8.24,8.24,0,0,0-1.17,4.62v28q0,8.92,16.34,8.93,7.21,0,19.69-2.94Z" transform="translate(-310.75 -316.72)"/><path class="cls-1" d="M433.25,432.9h-16l-5.88-17.35H387.27l-5.78,17.35H365.86L390.22,367H409.5ZM407.88,405l-8.33-24.76h-.4L390.83,405Z" transform="translate(-310.75 -316.72)"/><path class="cls-1" d="M491.1,409.76v4.37A20.88,20.88,0,0,1,489,424a14.09,14.09,0,0,1-6.29,6.09,32.74,32.74,0,0,1-9.09,2.94,68.34,68.34,0,0,1-11.72.87,184.19,184.19,0,0,1-23.34-1.83V420q16.85,2.64,23.54,2.64,13.2,0,13.2-6.8v-4.26a6.85,6.85,0,0,0-1.73-4.82q-1.73-1.87-6.9-1.88h-7.71q-21.72,0-21.72-17.25v-4.88q0-8.52,7.15-12.63T467.25,366q7.61,0,20.6,1.32v11.77q-15.42-1.83-21.11-1.83-7.82,0-10.76,1.32a4.57,4.57,0,0,0-2.94,4.47v4.67q0,5.17,8.73,5.17h7.91q11.58,0,16.5,4.27T491.1,409.76Z" transform="translate(-310.75 -316.72)"/><path class="cls-1" d="M517.89,432.9H502.06V367h15.83Z" transform="translate(-310.75 -316.72)"/><path class="cls-1" d="M594.11,432.9h-16l-31.87-45.67V432.9H532.1V367h16L580,412V367h14.11Z" transform="translate(-310.75 -316.72)"/><path class="cls-1" d="M669.42,386v28.83a15.5,15.5,0,0,1-2.95,9.54,17.87,17.87,0,0,1-7.91,5.93,47.53,47.53,0,0,1-9.95,2.79,64.41,64.41,0,0,1-10.55.82,70.09,70.09,0,0,1-9.9-.66,52.22,52.22,0,0,1-9.84-2.49,17.41,17.41,0,0,1-8.33-5.89,16.07,16.07,0,0,1-3.09-10V386a17.47,17.47,0,0,1,7.76-14.82,28.71,28.71,0,0,1,7.77-3.29,45.46,45.46,0,0,1,8.12-1.58c2.36-.2,4.87-.3,7.51-.3s5.26.1,7.66.3a45.43,45.43,0,0,1,8.17,1.58,29.56,29.56,0,0,1,7.81,3.29,16.65,16.65,0,0,1,5.49,5.84A17.52,17.52,0,0,1,669.42,386Zm-15.83,28.83V385.91a6.87,6.87,0,0,0-3.91-6.7q-3.91-1.92-11.52-1.93t-11.57,1.88q-3.86,1.88-3.86,6.75v28.93a6.6,6.6,0,0,0,1.32,4.21,7.2,7.2,0,0,0,3.81,2.38,28.45,28.45,0,0,0,4.77,1,63.52,63.52,0,0,0,11.26,0,27.14,27.14,0,0,0,4.72-1,6.91,6.91,0,0,0,3.71-2.38A6.82,6.82,0,0,0,653.59,414.84Z" transform="translate(-310.75 -316.72)"/><path class="cls-2" d="M731.74,376.9H698.08v20.45h30.48v6.56H698.08v29h-9.35V370.35h43Z" transform="translate(-310.75 -316.72)"/><path class="cls-2" d="M750.83,378.45h-8.68v-9.07h8.68Zm0,54.48h-8.68V386.26h8.68Z" transform="translate(-310.75 -316.72)"/><path class="cls-2" d="M806.08,432.93h-8.67V399.18a12.27,12.27,0,0,0-.29-2.89,6.72,6.72,0,0,0-1.21-2.36,5.72,5.72,0,0,0-3.08-1.84,20.39,20.39,0,0,0-5.45-.62c-5.08,0-8.49.54-10.23,1.64s-2.6,3.11-2.6,6.07v33.75h-8.68V386.26h8.68V392q1.35-6.66,15.33-6.66,9.27,0,12.73,3.33t3.47,10.08Z" transform="translate(-310.75 -316.72)"/><path class="cls-2" d="M861.92,432.93h-8.49v-5.5c0,1.68-1.4,3.17-4.19,4.49s-6.61,2-11.43,2q-10.12,0-14.27-3.19t-4.15-11.66V398.51q0-7,4.34-10.13t14.56-3.09a34.45,34.45,0,0,1,10.18,1.45q4.66,1.45,4.77,4.53h.19q-.2-7.9-.19-11.86v-14h8.68Zm-8.68-12.25v-23q0-6.27-12.83-6.27-7.71,0-10.07,1.16T828,397.64v23q0,4,2.66,5.6c1.76,1.09,4.77,1.64,9,1.64q7.14,0,10.37-1.64A5.77,5.77,0,0,0,853.24,420.68Z" transform="translate(-310.75 -316.72)"/><path class="cls-2" d="M914.57,411.52H883.23v7q0,4.92,3.47,7T897,427.63a64.6,64.6,0,0,0,15.72-2.32V432a78.09,78.09,0,0,1-16.88,1.93q-21.4,0-21.41-14.28V401.21q0-8.59,4.92-12.25t15.72-3.67q10.13,0,14.8,3.52t4.68,12.4Zm-8.68-5.69v-7.32q0-4.25-2.6-5.84t-8.68-1.59c-3.86,0-6.72.52-8.58,1.54s-2.8,3-2.8,5.89v7.32Z" transform="translate(-310.75 -316.72)"/><path class="cls-2" d="M953,392.72h-4.82q-6,0-8.83,1.54t-2.84,5.79v32.88h-8.68V386.26H936v7.62c0-2.25,1.39-4.25,4.19-6a16,16,0,0,1,8.54-2.61H953Z" transform="translate(-310.75 -316.72)"/><path class="cls-3" d="M326.58,413.72V399.59H310.75v15.25a16.34,16.34,0,0,0,7.36,14.05,26.45,26.45,0,0,0,7.51,3.15,51.34,51.34,0,0,0,8,1.52q3.6.36,7.66.36a108.66,108.66,0,0,0,21.31-2.24v-12q-12.48,2.94-19.69,2.94Q326.58,422.65,326.58,413.72Z" transform="translate(-310.75 -316.72)"/><polygon class="cls-3" points="95.31 82.86 97.13 88.27 80.08 88.27 81.89 82.86 67.43 82.86 55.11 116.18 70.74 116.18 76.52 98.82 100.58 98.82 106.46 116.18 122.5 116.18 110.49 82.86 95.31 82.86"/><path class="cls-3" d="M441.54,399.59q5.35,5.3,17.39,5.3h7.71q5.17,0,6.9,1.88a6.85,6.85,0,0,1,1.73,4.82v4.26q0,6.79-13.2,6.8-6.69,0-23.54-2.64v12.08a184.19,184.19,0,0,0,23.34,1.83,68.34,68.34,0,0,0,11.72-.87,32.74,32.74,0,0,0,9.09-2.94A14.09,14.09,0,0,0,489,424a20.88,20.88,0,0,0,2.13-9.89v-4.37a17.36,17.36,0,0,0-2.76-10.17Z" transform="translate(-310.75 -316.72)"/><rect class="cls-3" x="191.31" y="82.86" width="15.83" height="33.32"/><rect class="cls-3" x="221.35" y="82.86" width="14.11" height="33.32"/><polygon class="cls-3" points="269.25 82.86 269.25 95.27 260.46 82.86 244.08 82.86 267.33 116.18 283.36 116.18 283.36 82.86 269.25 82.86"/><path class="cls-3" d="M653.59,399.59v15.25a6.82,6.82,0,0,1-1.27,4.21,6.91,6.91,0,0,1-3.71,2.38,27.14,27.14,0,0,1-4.72,1,63.52,63.52,0,0,1-11.26,0,28.45,28.45,0,0,1-4.77-1,7.2,7.2,0,0,1-3.81-2.38,6.6,6.6,0,0,1-1.32-4.21V399.59H606.9v15.25a16.07,16.07,0,0,0,3.09,10,17.41,17.41,0,0,0,8.33,5.89,52.22,52.22,0,0,0,9.84,2.49,70.09,70.09,0,0,0,9.9.66,64.41,64.41,0,0,0,10.55-.82,47.53,47.53,0,0,0,9.95-2.79,17.87,17.87,0,0,0,7.91-5.93,15.5,15.5,0,0,0,2.95-9.54V399.59Z" transform="translate(-310.75 -316.72)"/><polygon class="cls-4" points="377.98 83.37 377.98 116.21 387.33 116.21 387.33 87.18 417.81 87.18 417.81 83.37 377.98 83.37"/><rect class="cls-4" x="431.4" y="83.37" width="8.68" height="32.84"/><rect class="cls-4" x="486.66" y="83.37" width="8.68" height="32.84"/><rect class="cls-4" x="455.12" y="83.37" width="8.68" height="32.84"/><path class="cls-4" d="M853.24,400.09v20.59a5.77,5.77,0,0,1-3.23,5.6q-3.24,1.64-10.37,1.64c-4.24,0-7.25-.55-9-1.64s-2.66-3-2.66-5.6V400.09h-8.58v19q0,8.47,4.15,11.66t14.27,3.19q7.23,0,11.43-2c2.79-1.32,4.19-2.81,4.19-4.49v5.5h8.49V400.09Z" transform="translate(-310.75 -316.72)"/><path class="cls-4" d="M905.89,400.09v5.74H883.23v-5.74H874.5c0,.37,0,.73,0,1.12v18.41q0,14.28,21.41,14.28A78.09,78.09,0,0,0,912.74,432v-6.66A64.6,64.6,0,0,1,897,427.63q-6.85,0-10.32-2.08t-3.47-7v-7h31.34V401.21c0-.39,0-.75,0-1.12Z" transform="translate(-310.75 -316.72)"/><rect class="cls-4" x="617.03" y="83.37" width="8.68" height="32.84"/><path class="cls-1" d="M916.8,317.29l-64.09,24.26a8.75,8.75,0,0,0-5.09,11.28l2.16,5.71h10.8a9,9,0,1,1,11.77,5.64,8.77,8.77,0,0,1-3.32.57v30.89c.9-5.3,3.26-9.44,7.07-12.28,4.47-3.33,10.88-4.95,19.6-4.95,8.27,0,14.39,1.58,18.71,4.83a16.53,16.53,0,0,1,4.63,5.55h2.85v-3.9a8.67,8.67,0,0,1,0-2.69,9.12,9.12,0,0,1,5.73-7.09,9,9,0,0,1,11.1,4.14c2.83-1.77,6.46-2.4,9.89-2.64l-20.53-54.24A8.76,8.76,0,0,0,916.8,317.29Zm-13.31,59.95a9,9,0,1,1,5.25-11.63A9,9,0,0,1,903.49,377.24Zm13.58-30a9,9,0,1,1,5.24-11.63A9,9,0,0,1,917.07,347.26Z" transform="translate(-310.75 -316.72)"/><path class="cls-1" d="M1053.73,370.33a8.66,8.66,0,0,0-5.58-3.69l-67.29-13a8.77,8.77,0,0,0-10.25,6.94l-13,67.29a8.77,8.77,0,0,0,6.94,10.25l67.29,13a8.81,8.81,0,0,0,4.74-.41,8.72,8.72,0,0,0,5.51-6.53l13-67.29A8.67,8.67,0,0,0,1053.73,370.33Zm-24.08,63.17-.41.3c-2.4,1.75-5.59.68-7.57-2l-1.4-1.91.21.28,8.46-6-.28-.39,1.38,1.89c1.55,2.13,1.91,4.67.82,6.51A4.45,4.45,0,0,1,1029.65,433.5ZM983.29,410A23.36,23.36,0,1,1,1025,391a23,23,0,0,1-4.81,19.83,1,1,0,0,0,0,1.18l3,4.14h0l-8.42,6,2.3,3.16-5.24-7.19a1,1,0,0,0-1.16-.34,22.86,22.86,0,0,1-23.84-4A23.48,23.48,0,0,1,983.29,410Zm44.85,13.05-8.41,6.06c-.78-1.08-1.74-2.39-2.73-3.74l8.45-6C1026.43,420.72,1027.36,422,1028.14,423.06Zm-49.65,9.59a8,8,0,1,1,8-8A8,8,0,0,1,978.49,432.65Zm57-45a8,8,0,1,1,8-8A8,8,0,0,1,1035.49,387.65Z" transform="translate(-310.75 -316.72)"/><path class="cls-1" d="M1012.33,410.19a17.28,17.28,0,0,0,3.78-24.12,17.07,17.07,0,0,0-3.8-3.79,17.26,17.26,0,1,0,0,27.91Zm-15.07-27.67a15.2,15.2,0,0,1,18.41,11,2.4,2.4,0,0,1-1.75,2.92,2.61,2.61,0,0,1-1,0,2.43,2.43,0,0,1-2-1.8,10.36,10.36,0,0,0-12.56-7.53,2.41,2.41,0,0,1-1.17-4.68Z" transform="translate(-310.75 -316.72)"/></svg>